# xmcd
#
# Track frame offsets:
# 150
# 7060
# 23900
# 61385
# 68377
# 96682
# 100260
# 122660
# 135582
# 145942
# 153017
#
# Disc length: 2104 seconds
#
#
# Revision: 0
# Processed by: cddbd v1.5.1PL0 Copyright (c) Steve Scherf et al.
# Submitted via: FreeRIP 2.90 
#
DISCID=9008360b
DTITLE=Uptighty - Uptighty
DYEAR=1900
DGENRE=Soul
TTITLE0=A Summer Poem
TTITLE1=No Trouble on the Mountain
TTITLE2=If There's Heaven Above
TTITLE3=Lea's Flute Solo
TTITLE4=Let's Take It to the Lounge
TTITLE5=*Don't Take Much* Interlude
TTITLE6=No Trouble On the Mountain [Remix 1]
TTITLE7=No Trouble On the Mountain [Remix 2]
TTITLE8=Hip Hop Poet
TTITLE9=Marvin Tate On Leroy's Answering Machine
TTITLE10=Bass Thing
EXTD=
EXTT0=
EXTT1=
EXTT2=
EXTT3=
EXTT4=
EXTT5=
EXTT6=
EXTT7=
EXTT8=
EXTT9=
EXTT10=
PLAYORDER=
